<svg width="50" height="50" viewBox="0 0 50 50" fill="none" xmlns="http://www.w3.org/2000/svg">
<g opacity="0.5">
<circle cx="25" cy="25" r="24" stroke="url(#paint0_linear)" stroke-width="2"/>
<path d="M9.61886 33.7C9.29886 38.42 13.1522 41.5333 15.1189 42.5C13.3589 38.1 14.0522 34.8 14.6188 33.7C16.0588 30.58 20.8855 27.3333 23.1188 26.1C26.3188 24.58 27.5188 20.9333 27.7188 19.3C28.2788 12.9 21.7522 8.56666 18.4188 7.2C21.1388 11.12 20.3522 17.7667 19.6188 20.6C18.8188 23.88 14.4188 27.3 12.3188 28.6C9.91885 30.12 9.51885 32.6333 9.61886 33.7Z" stroke="url(#paint1_linear)" stroke-width="2"/>
<path d="M20.6189 31.4C17.8189 33.88 17.6522 35.6333 17.9189 36.2C20.6389 32.92 26.0522 32.1667 28.4189 32.2C30.7389 32.12 32.1855 31.6333 32.6189 31.4C37.1789 29.32 37.4522 24.2 37.0189 21.9C35.8989 15.98 32.8189 13.0333 31.4189 12.3C34.5389 17.66 31.7855 22.2667 30.0189 23.9C29.8589 24.54 23.6855 29.1667 20.6189 31.4Z" stroke="url(#paint2_linear)" stroke-width="2"/>
<path d="M34.9189 42.8C28.7589 36.32 22.2189 37.7 19.7189 39.2C20.9189 36 22.6855 34.9333 23.4189 34.8C31.3389 38.64 37.7189 31.6667 39.9189 27.7C41.4389 34.1 37.2189 40.4333 34.9189 42.8Z" stroke="url(#paint3_linear)" stroke-width="2"/>
</g>
<defs>
<linearGradient id="paint0_linear" x1="50" y1="0" x2="0" y2="50" gradientUnits="userSpaceOnUse">
<stop stop-color="white" stop-opacity="0.5"/>
<stop offset="0.505208" stop-color="white"/>
<stop offset="1" stop-color="white" stop-opacity="0.5"/>
</linearGradient>
<linearGradient id="paint1_linear" x1="40.2414" y1="7.2" x2="5.03818" y2="37.4998" gradientUnits="userSpaceOnUse">
<stop stop-color="white" stop-opacity="0.5"/>
<stop offset="0.505208" stop-color="white"/>
<stop offset="1" stop-color="white" stop-opacity="0.5"/>
</linearGradient>
<linearGradient id="paint2_linear" x1="40.2414" y1="7.2" x2="5.03818" y2="37.4998" gradientUnits="userSpaceOnUse">
<stop stop-color="white" stop-opacity="0.5"/>
<stop offset="0.505208" stop-color="white"/>
<stop offset="1" stop-color="white" stop-opacity="0.5"/>
</linearGradient>
<linearGradient id="paint3_linear" x1="40.2414" y1="7.2" x2="5.03818" y2="37.4998" gradientUnits="userSpaceOnUse">
<stop stop-color="white" stop-opacity="0.5"/>
<stop offset="0.505208" stop-color="white"/>
<stop offset="1" stop-color="white" stop-opacity="0.5"/>
</linearGradient>
</defs>
</svg>
