<svg width="50" height="50" viewBox="0 0 50 50" fill="none" xmlns="http://www.w3.org/2000/svg">
<circle cx="25" cy="25" r="24" stroke="url(#paint0_linear)" stroke-width="2"/>
<path d="M25.5999 43.3H24.7999L15.2 37.6C14.4 32.8 11.4 28.5333 10 27L12.5 18.7L15 21.2L23.6 13L23.8 6.59998L29.3 13L27.7 17.5C24.26 18.22 20.9333 21 19.6999 22.3C17.2199 25.26 17.2666 28.6666 17.5999 30C19.0399 33.12 23.1999 36.2333 25.0999 37.4C29.9799 33.96 32.2666 30.0333 32.7999 28.5C31.9999 26.26 30.2666 25.0333 29.4999 24.7C27.1799 23.74 25.7999 24.8333 25.3999 25.5V26.7C25.8799 27.5 26.7999 28.1 27.1999 28.3C27.9199 28.46 27.9666 29.0333 27.8999 29.3C27.0999 31.14 25.4999 32.2 24.7999 32.5L20.9999 29.1C21.1599 25.9 22.5333 23.7 23.1999 23C25.5199 21 29.7666 20.8333 31.5999 21C33.1199 21.56 33.9666 22.9666 34.1999 23.6C35.3999 25.68 36.3666 26.2 36.6999 26.2L37.4999 25.3V23.9H38.5999L39.9999 25.3V26.4L38.7999 32.1L25.5999 43.3Z" stroke="url(#paint1_linear)" stroke-width="2"/>
<defs>
<linearGradient id="paint0_linear" x1="50" y1="0" x2="0" y2="50" gradientUnits="userSpaceOnUse">
<stop stop-color="#9B4100" stop-opacity="0.5"/>
<stop offset="0.484375" stop-color="#FF6B00"/>
<stop offset="1" stop-color="#9B4100" stop-opacity="0.5"/>
</linearGradient>
<linearGradient id="paint1_linear" x1="39.9999" y1="6.59998" x2="4.03316" y2="36.0005" gradientUnits="userSpaceOnUse">
<stop stop-color="#9B4100" stop-opacity="0.5"/>
<stop offset="0.484375" stop-color="#FF6B00"/>
<stop offset="1" stop-color="#9B4100" stop-opacity="0.5"/>
</linearGradient>
</defs>
</svg>
