<svg width="50" height="50" viewBox="0 0 50 50" fill="none" xmlns="http://www.w3.org/2000/svg">
<circle cx="25" cy="25" r="24" stroke="url(#paint0_linear)" stroke-width="2"/>
<path d="M13.5848 13.3813C13.7448 17.0613 14.1181 18.3813 14.2848 18.5813C21.8048 4.82129 31.8181 8.84796 35.8847 12.5813C41.8047 18.7413 40.2847 24.4813 38.7847 26.5813C42.9447 28.5813 41.318 33.348 39.9847 35.4813C39.9047 34.6813 39.4847 34.148 39.2847 33.9813C36.8847 37.8213 34.2847 39.5146 33.2847 39.8813C37.1247 35.1613 36.9513 29.5813 36.3847 27.3813C34.9447 22.1013 30.718 19.5813 28.7847 18.9813C29.5847 16.1813 31.7847 14.548 32.7847 14.0813C26.4647 13.9213 24.218 17.948 23.8847 19.9813C20.9247 21.1013 19.718 23.5146 19.4847 24.5813C21.0847 23.1413 22.5513 22.848 23.0847 22.8813C26.2847 21.9213 29.218 24.4146 30.2847 25.7813C32.3647 27.4613 32.018 31.948 31.5847 33.9813C29.9047 38.8613 26.0847 40.548 24.3847 40.7813C19.2647 42.0613 14.9181 39.048 13.3848 37.3813C8.82475 33.0613 8.35142 26.7146 8.68475 24.0813C10.0448 15.9213 12.5181 13.548 13.5848 13.3813Z" stroke="url(#paint1_linear)" stroke-width="2"/>
<defs>
<linearGradient id="paint0_linear" x1="50" y1="0" x2="0" y2="50" gradientUnits="userSpaceOnUse">
<stop stop-color="#0A5E64" stop-opacity="0.5"/>
<stop offset="0.494792" stop-color="#108B94"/>
<stop offset="1" stop-color="#0A5E64" stop-opacity="0.5"/>
</linearGradient>
<linearGradient id="paint1_linear" x1="41.4477" y1="9" x2="9.36684" y2="41.8387" gradientUnits="userSpaceOnUse">
<stop stop-color="#0A5E64" stop-opacity="0.5"/>
<stop offset="0.494792" stop-color="#108B94"/>
<stop offset="1" stop-color="#0A5E64" stop-opacity="0.5"/>
</linearGradient>
</defs>
</svg>
