<svg width="40" height="41" viewBox="0 0 40 41" fill="none" xmlns="http://www.w3.org/2000/svg">
<path d="M4.61877 29.7C4.29877 34.42 8.1521 37.5333 10.1188 38.5C8.35877 34.1 9.0521 30.8 9.61876 29.7C11.0588 26.58 15.8854 23.3333 18.1188 22.1C21.3188 20.58 22.5188 16.9333 22.7188 15.3C23.2788 8.90001 16.7521 4.56668 13.4188 3.20001C16.1388 7.12001 15.3521 13.7667 14.6188 16.6C13.8188 19.88 9.41876 23.3 7.31876 24.6C4.91876 26.12 4.51876 28.6333 4.61877 29.7Z" stroke="url(#paint0_linear)" stroke-width="2"/>
<path d="M15.6188 27.4C12.8188 29.88 12.6521 31.6333 12.9188 32.2C15.6388 28.92 21.0521 28.1667 23.4188 28.2C25.7388 28.12 27.1854 27.6333 27.6188 27.4C32.1788 25.32 32.4521 20.2 32.0188 17.9C30.8988 11.98 27.8188 9.03335 26.4188 8.30001C29.5388 13.66 26.7854 18.2667 25.0188 19.9C24.8588 20.54 18.6854 25.1667 15.6188 27.4Z" stroke="url(#paint1_linear)" stroke-width="2"/>
<path d="M29.9188 38.8C23.7588 32.32 17.2188 33.7 14.7188 35.2C15.9188 32 17.6854 30.9333 18.4188 30.8C26.3388 34.64 32.7188 27.6667 34.9188 23.7C36.4388 30.1 32.2188 36.4333 29.9188 38.8Z" stroke="url(#paint2_linear)" stroke-width="2"/>
<defs>
<linearGradient id="paint0_linear" x1="35.2413" y1="3.20001" x2="0.0380845" y2="33.4998" gradientUnits="userSpaceOnUse">
<stop stop-color="white" stop-opacity="0.5"/>
<stop offset="0.505208" stop-color="white"/>
<stop offset="1" stop-color="white" stop-opacity="0.5"/>
</linearGradient>
<linearGradient id="paint1_linear" x1="35.2413" y1="3.20001" x2="0.0380845" y2="33.4998" gradientUnits="userSpaceOnUse">
<stop stop-color="white" stop-opacity="0.5"/>
<stop offset="0.505208" stop-color="white"/>
<stop offset="1" stop-color="white" stop-opacity="0.5"/>
</linearGradient>
<linearGradient id="paint2_linear" x1="35.2413" y1="3.20001" x2="0.0380845" y2="33.4998" gradientUnits="userSpaceOnUse">
<stop stop-color="white" stop-opacity="0.5"/>
<stop offset="0.505208" stop-color="white"/>
<stop offset="1" stop-color="white" stop-opacity="0.5"/>
</linearGradient>
</defs>
</svg>
