<svg width="20" height="20" viewBox="0 0 20 20" fill="none" xmlns="http://www.w3.org/2000/svg">
<path d="M10 0C8.02219 -2.35852e-08 6.08879 0.58649 4.4443 1.6853C2.79981 2.78412 1.51809 4.3459 0.761209 6.17317C0.00433284 8.00043 -0.193701 10.0111 0.192152 11.9509C0.578004 13.8907 1.53041 15.6725 2.92894 17.0711C4.32746 18.4696 6.10929 19.422 8.0491 19.8079C9.98891 20.1937 11.9996 19.9957 13.8268 19.2388C15.6541 18.4819 17.2159 17.2002 18.3147 15.5557C19.4135 13.9112 20 11.9778 20 10H18C18 11.5823 17.5308 13.129 16.6518 14.4446C15.7727 15.7602 14.5233 16.7855 13.0615 17.391C11.5997 17.9965 9.99113 18.155 8.43928 17.8463C6.88743 17.5376 5.46197 16.7757 4.34315 15.6569C3.22433 14.538 2.4624 13.1126 2.15372 11.5607C1.84504 10.0089 2.00347 8.40034 2.60897 6.93853C3.21447 5.47672 4.23985 4.22729 5.55544 3.34824C6.87104 2.46919 8.41775 2 10 2V0Z" fill="white"/>
<path d="M7.44532 9.16719L8.64063 7.1125H9.78125L8.0625 9.93281L9.82032 12.8H8.66797L7.44532 10.7141L6.21875 12.8H5.07032L6.83204 9.93281L5.10938 7.1125H6.25L7.44532 9.16719Z" fill="white"/>
<path d="M11.5391 10.6867V12.8H10.5508V7.1125H12.7266C13.362 7.1125 13.8659 7.27786 14.2383 7.60859C14.6133 7.93932 14.8008 8.37682 14.8008 8.92109C14.8008 9.47839 14.6172 9.91198 14.25 10.2219C13.8854 10.5318 13.3737 10.6867 12.7148 10.6867H11.5391ZM11.5391 9.89375H12.7266C13.0781 9.89375 13.3464 9.81172 13.5313 9.64766C13.7162 9.48099 13.8086 9.24141 13.8086 8.92891C13.8086 8.62161 13.7148 8.37682 13.5273 8.19453C13.3398 8.00964 13.082 7.91458 12.7539 7.90938H11.5391V9.89375Z" fill="white"/>
</svg>
