<svg width="45" height="37" viewBox="0 0 45 37" fill="none" xmlns="http://www.w3.org/2000/svg">
<circle cx="18" cy="18" r="9" fill="#B67F15" stroke="#63430F" stroke-width="2"/>
<g filter="url(#filter0_d)">
<circle cx="18.002" cy="18.0001" r="8" fill="url(#paint0_radial)"/>
<circle cx="18.002" cy="18.0001" r="7.5" stroke="#B67F15"/>
</g>
<g filter="url(#filter1_d)">
<path d="M17.1505 20.3678C17.4305 20.4078 17.7145 20.4398 18.0025 20.4638C18.2985 20.4878 18.5825 20.4998 18.8545 20.4998C19.0785 20.4998 19.2865 20.4878 19.4785 20.4638C19.6705 20.4318 19.8545 20.3878 20.0305 20.3318C20.2145 20.2678 20.3945 20.1878 20.5705 20.0918C20.7545 19.9878 20.9505 19.8638 21.1585 19.7198L20.4865 21.3998H15.3145C15.4345 21.3358 15.5305 21.2678 15.6025 21.1958C15.6745 21.1158 15.7305 21.0158 15.7705 20.8958C15.8105 20.7758 15.8385 20.6278 15.8545 20.4518C15.8705 20.2758 15.8785 20.0518 15.8785 19.7798V14.6798C15.8785 14.4078 15.8705 14.1838 15.8545 14.0078C15.8385 13.8318 15.8105 13.6838 15.7705 13.5638C15.7305 13.4438 15.6745 13.3478 15.6025 13.2758C15.5305 13.1958 15.4345 13.1238 15.3145 13.0598H17.7145C17.5945 13.1238 17.4985 13.1958 17.4265 13.2758C17.3545 13.3478 17.2985 13.4438 17.2585 13.5638C17.2185 13.6838 17.1905 13.8318 17.1745 14.0078C17.1585 14.1838 17.1505 14.4078 17.1505 14.6798V20.3678Z" fill="#F5CD80"/>
</g>
<circle cx="29" cy="21" r="6" fill="#B67F15" stroke="#63430F" stroke-width="2"/>
<g filter="url(#filter2_d)">
<circle cx="29.0014" cy="21.0001" r="5.6" fill="url(#paint1_radial)"/>
<circle cx="29.0014" cy="21.0001" r="5.1" stroke="#B67F15"/>
</g>
<g filter="url(#filter3_d)">
<path d="M28.4053 22.6575C28.6013 22.6855 28.8001 22.7079 29.0017 22.7247C29.2089 22.7415 29.4077 22.7499 29.5981 22.7499C29.7549 22.7499 29.9005 22.7415 30.0349 22.7247C30.1693 22.7023 30.2981 22.6715 30.4213 22.6323C30.5501 22.5875 30.6761 22.5315 30.7993 22.4643C30.9281 22.3915 31.0653 22.3047 31.2109 22.2039L30.7405 23.3799H27.1201C27.2041 23.3351 27.2713 23.2875 27.3217 23.2371C27.3721 23.1811 27.4113 23.1111 27.4393 23.0271C27.4673 22.9431 27.4869 22.8395 27.4981 22.7163C27.5093 22.5931 27.5149 22.4363 27.5149 22.2459V18.6759C27.5149 18.4855 27.5093 18.3287 27.4981 18.2055C27.4869 18.0823 27.4673 17.9787 27.4393 17.8947C27.4113 17.8107 27.3721 17.7435 27.3217 17.6931C27.2713 17.6371 27.2041 17.5867 27.1201 17.5419H28.8001C28.7161 17.5867 28.6489 17.6371 28.5985 17.6931C28.5481 17.7435 28.5089 17.8107 28.4809 17.8947C28.4529 17.9787 28.4333 18.0823 28.4221 18.2055C28.4109 18.3287 28.4053 18.4855 28.4053 18.6759V22.6575Z" fill="#F5CD80"/>
</g>
<defs>
<filter id="filter0_d" x="0.00195312" y="0.00012207" width="36" height="36" filterUnits="userSpaceOnUse" color-interpolation-filters="sRGB">
<feFlood flood-opacity="0" result="BackgroundImageFix"/>
<feColorMatrix in="SourceAlpha" type="matrix" values="0 0 0 0 0 0 0 0 0 0 0 0 0 0 0 0 0 0 127 0"/>
<feOffset/>
<feGaussianBlur stdDeviation="5"/>
<feColorMatrix type="matrix" values="0 0 0 0 0 0 0 0 0 0 0 0 0 0 0 0 0 0 0.3 0"/>
<feBlend mode="normal" in2="BackgroundImageFix" result="effect1_dropShadow"/>
<feBlend mode="normal" in="SourceGraphic" in2="effect1_dropShadow" result="shape"/>
</filter>
<filter id="filter1_d" x="5.31445" y="3.05981" width="25.844" height="28.34" filterUnits="userSpaceOnUse" color-interpolation-filters="sRGB">
<feFlood flood-opacity="0" result="BackgroundImageFix"/>
<feColorMatrix in="SourceAlpha" type="matrix" values="0 0 0 0 0 0 0 0 0 0 0 0 0 0 0 0 0 0 127 0"/>
<feOffset/>
<feGaussianBlur stdDeviation="5"/>
<feColorMatrix type="matrix" values="0 0 0 0 0 0 0 0 0 0 0 0 0 0 0 0 0 0 0.3 0"/>
<feBlend mode="normal" in2="BackgroundImageFix" result="effect1_dropShadow"/>
<feBlend mode="normal" in="SourceGraphic" in2="effect1_dropShadow" result="shape"/>
</filter>
<filter id="filter2_d" x="13.4014" y="5.40015" width="31.2" height="31.2" filterUnits="userSpaceOnUse" color-interpolation-filters="sRGB">
<feFlood flood-opacity="0" result="BackgroundImageFix"/>
<feColorMatrix in="SourceAlpha" type="matrix" values="0 0 0 0 0 0 0 0 0 0 0 0 0 0 0 0 0 0 127 0"/>
<feOffset/>
<feGaussianBlur stdDeviation="5"/>
<feColorMatrix type="matrix" values="0 0 0 0 0 0 0 0 0 0 0 0 0 0 0 0 0 0 0.3 0"/>
<feBlend mode="normal" in2="BackgroundImageFix" result="effect1_dropShadow"/>
<feBlend mode="normal" in="SourceGraphic" in2="effect1_dropShadow" result="shape"/>
</filter>
<filter id="filter3_d" x="17.1201" y="7.54187" width="24.0908" height="25.838" filterUnits="userSpaceOnUse" color-interpolation-filters="sRGB">
<feFlood flood-opacity="0" result="BackgroundImageFix"/>
<feColorMatrix in="SourceAlpha" type="matrix" values="0 0 0 0 0 0 0 0 0 0 0 0 0 0 0 0 0 0 127 0"/>
<feOffset/>
<feGaussianBlur stdDeviation="5"/>
<feColorMatrix type="matrix" values="0 0 0 0 0 0 0 0 0 0 0 0 0 0 0 0 0 0 0.3 0"/>
<feBlend mode="normal" in2="BackgroundImageFix" result="effect1_dropShadow"/>
<feBlend mode="normal" in="SourceGraphic" in2="effect1_dropShadow" result="shape"/>
</filter>
<radialGradient id="paint0_radial" cx="0" cy="0" r="1" gradientUnits="userSpaceOnUse" gradientTransform="translate(18.002 18.0001) rotate(90) scale(8)">
<stop stop-color="#B67F15"/>
<stop offset="1" stop-color="#63430F"/>
</radialGradient>
<radialGradient id="paint1_radial" cx="0" cy="0" r="1" gradientUnits="userSpaceOnUse" gradientTransform="translate(29.0014 21.0001) rotate(90) scale(5.6)">
<stop stop-color="#B67F15"/>
<stop offset="1" stop-color="#63430F"/>
</radialGradient>
</defs>
</svg>
