<svg width="20" height="20" viewBox="0 0 20 20" fill="none" xmlns="http://www.w3.org/2000/svg">
<path d="M15.0009 10C14.5649 10 14.2114 9.64654 14.2114 9.21053V5.78949H10.7895C10.3535 5.78949 10 5.43603 10 5.00002C10 4.564 10.3535 4.21054 10.7895 4.21054H14.2114V0.789474C14.2114 0.353459 14.5649 0 15.0009 0C15.4369 0 15.7904 0.353459 15.7904 0.789474V4.21054H19.2105C19.6465 4.21054 20 4.564 20 5.00002C20 5.43603 19.6465 5.78949 19.2105 5.78949H15.7904V9.21053C15.7904 9.64654 15.4369 10 15.0009 10Z" fill="#0D9E35"/>
<path d="M5.896 18.8947C5.896 19.5052 6.39084 20 7.00126 20C7.61168 20 8.10652 19.5052 8.10652 18.8947V14.1053H12.8947C13.5052 14.1053 14 13.6104 14 13C14 12.3896 13.5052 11.8948 12.8947 11.8948H8.10652V7.10526C8.10652 6.49484 7.61168 6 7.00126 6C6.39084 6 5.896 6.49484 5.896 7.10526V11.8948H1.10526C0.494843 11.8948 0 12.3896 0 13C0 13.6104 0.494843 14.1053 1.10526 14.1053H5.896V18.8947Z" fill="#0D9E35"/>
<path d="M2.52686 5.52632C2.52686 5.78792 2.73893 6 3.00054 6C3.26215 6 3.47422 5.78792 3.47422 5.52632V3.47369H5.52632C5.78792 3.47369 6 3.26162 6 3.00001C6 2.7384 5.78792 2.52633 5.52632 2.52633H3.47422V0.473684C3.47422 0.212076 3.26215 0 3.00054 0C2.73893 0 2.52686 0.212076 2.52686 0.473684V2.52633H0.473684C0.212076 2.52633 0 2.7384 0 3.00001C0 3.26162 0.212076 3.47369 0.473684 3.47369H2.52686V5.52632Z" fill="#0D9E35"/>
</svg>
