<svg width="40" height="42" viewBox="0 0 40 42" fill="none" xmlns="http://www.w3.org/2000/svg">
<path d="M20.5999 40.3H19.7999L10.2 34.6C9.4 29.8 6.4 25.5333 5 24L7.5 15.7L10 18.2L18.6 9.99998L18.8 3.59998L24.3 9.99998L22.7 14.5C19.26 15.22 15.9333 18 14.6999 19.3C12.2199 22.26 12.2666 25.6666 12.5999 27C14.0399 30.12 18.1999 33.2333 20.0999 34.4C24.9799 30.96 27.2666 27.0333 27.7999 25.5C26.9999 23.26 25.2666 22.0333 24.4999 21.7C22.1799 20.74 20.7999 21.8333 20.3999 22.5V23.7C20.8799 24.5 21.7999 25.1 22.1999 25.3C22.9199 25.46 22.9666 26.0333 22.8999 26.3C22.0999 28.14 20.4999 29.2 19.7999 29.5L15.9999 26.1C16.1599 22.9 17.5333 20.7 18.1999 20C20.5199 18 24.7666 17.8333 26.5999 18C28.1199 18.56 28.9666 19.9666 29.1999 20.6C30.3999 22.68 31.3666 23.2 31.6999 23.2L32.4999 22.3V20.9H33.5999L34.9999 22.3V23.4L33.7999 29.1L20.5999 40.3Z" stroke="url(#paint0_linear)" stroke-width="2"/>
<defs>
<linearGradient id="paint0_linear" x1="34.9999" y1="3.59998" x2="-0.966836" y2="33.0005" gradientUnits="userSpaceOnUse">
<stop stop-color="#9B4100" stop-opacity="0.5"/>
<stop offset="0.484375" stop-color="#FF6B00"/>
<stop offset="1" stop-color="#9B4100" stop-opacity="0.5"/>
</linearGradient>
</defs>
</svg>
