<svg width="40" height="40" viewBox="0 0 40 40" fill="none" xmlns="http://www.w3.org/2000/svg">
<path d="M8 29C13.9317 33.0179 18.4065 37.9073 20.0976 40C27.122 28.8072 17.0894 8.66966 10 0C16.0878 10.1883 14.5203 20.293 14 24C11.8146 17.1121 3.64228 11.2556 0 10C5.15122 13.4439 7.60976 24.6951 8 29Z" fill="#108B94"/>
<path d="M32 29C29.6585 30.722 27.9756 32.9238 27 34C27 19.5067 35.5772 11.4948 40 10C34.6927 14.1614 32.2602 24.994 32 29Z" fill="#108B94"/>
<path d="M25 24C24.3756 21.2735 22.7154 16.3154 22 15C23 11 26.4878 4.36472 30 0C24.5366 7.89238 26 16 27 20L25 24Z" fill="#108B94"/>
</svg>
