<svg width="20" height="20" viewBox="0 0 20 20" fill="none" xmlns="http://www.w3.org/2000/svg">
<path d="M0.912396 14.1904L6.52988 19.4675C6.89286 19.8084 7.38516 20 7.89848 20H18.0645L17.4607 18.0146C17.0543 16.6786 15.7545 15.7576 14.2754 15.7576H13.7049C13.1916 15.7576 12.6993 15.566 12.3363 15.225C11.5805 14.515 11.5805 13.3638 12.3363 12.6537L20 5.45455L14.1935 0L0.912396 12.4762C0.408494 12.9496 0.408494 13.7171 0.912396 14.1904Z" fill="#8717DE"/>
<path d="M0 0H12.2581L10.3226 1.81818H0V0Z" fill="#8717DE"/>
<path d="M0 3.63636H8.3871L6.45161 5.45455H0V3.63636Z" fill="#8717DE"/>
<path d="M0 7.27273H4.51613L2.58065 9.09091H0V7.27273Z" fill="#8717DE"/>
</svg>
