<svg width="40" height="40" viewBox="0 0 40 40" fill="none" xmlns="http://www.w3.org/2000/svg">
<path d="M8.58466 8.38129C8.74466 12.0613 9.118 13.3813 9.28466 13.5813C16.8047 -0.178707 26.818 3.84796 30.8846 7.58129C36.8046 13.7413 35.2846 19.4813 33.7846 21.5813C37.9446 23.5813 36.3179 28.348 34.9846 30.4813C34.9046 29.6813 34.4846 29.148 34.2846 28.9813C31.8846 32.8213 29.2846 34.5146 28.2846 34.8813C32.1246 30.1613 31.9512 24.5813 31.3846 22.3813C29.9446 17.1013 25.7179 14.5813 23.7846 13.9813C24.5846 11.1813 26.7846 9.54796 27.7846 9.08129C21.4646 8.92129 19.2179 12.948 18.8846 14.9813C15.9246 16.1013 14.7179 18.5146 14.4846 19.5813C16.0846 18.1413 17.5512 17.848 18.0846 17.8813C21.2846 16.9213 24.2179 19.4146 25.2846 20.7813C27.3646 22.4613 27.0179 26.948 26.5846 28.9813C24.9046 33.8613 21.0846 35.548 19.3846 35.7813C14.2646 37.0613 9.91797 34.048 8.38466 32.3813C3.82466 28.0613 3.35133 21.7146 3.68466 19.0813C5.04466 10.9213 7.518 8.54796 8.58466 8.38129Z" stroke="url(#paint0_linear)" stroke-width="2"/>
<defs>
<linearGradient id="paint0_linear" x1="36.4476" y1="4" x2="4.36675" y2="36.8387" gradientUnits="userSpaceOnUse">
<stop stop-color="#0A5E64" stop-opacity="0.5"/>
<stop offset="0.494792" stop-color="#108B94"/>
<stop offset="1" stop-color="#0A5E64" stop-opacity="0.5"/>
</linearGradient>
</defs>
</svg>
