<svg width="20" height="20" viewBox="0 0 20 20" fill="none" xmlns="http://www.w3.org/2000/svg">
<path d="M14.053 2.2597C14.3993 1.91343 14.9607 1.91343 15.307 2.2597C15.6532 2.60596 15.6532 3.16737 15.307 3.51364L1.51364 17.307C1.16737 17.6532 0.605964 17.6532 0.259699 17.307C-0.0865664 16.9607 -0.0865664 16.3993 0.259699 16.053L14.053 2.2597Z" fill="#FF6B00"/>
<path d="M16.897 6.51038C17.9519 6.51038 18.8839 5.98393 19.4446 5.1794C19.808 6.0875 20 7.0648 20 8.06189C20 10.1193 19.1827 12.0925 17.7279 13.5473C16.2731 15.0021 14.2999 15.8194 12.2425 15.8194C11.2454 15.8194 10.2681 15.6275 9.35998 15.264C10.1645 14.7034 10.691 13.7714 10.691 12.7164C10.691 11.8595 10.3436 11.0838 9.78211 10.5222L14.7028 5.60153C15.2644 6.16307 16.0401 6.51038 16.897 6.51038Z" fill="#FF6B00"/>
</svg>
