<svg width="20" height="20" viewBox="0 0 20 20" fill="none" xmlns="http://www.w3.org/2000/svg">
<path d="M20 10C20 11.9778 19.4135 13.9112 18.3147 15.5557C17.2159 17.2002 15.6541 18.4819 13.8268 19.2388C11.9996 19.9957 9.98891 20.1937 8.0491 19.8078C6.10929 19.422 4.32746 18.4696 2.92894 17.0711C1.53041 15.6725 0.578005 13.8907 0.192152 11.9509C-0.1937 10.0111 0.00433222 8.00043 0.761208 6.17317C1.51808 4.34591 2.79981 2.78412 4.4443 1.68531C6.08879 0.586491 8.02219 9.1951e-07 10 0V2C8.41775 2 6.87103 2.46919 5.55544 3.34824C4.23985 4.2273 3.21447 5.47672 2.60897 6.93853C2.00347 8.40034 1.84504 10.0089 2.15372 11.5607C2.4624 13.1126 3.22433 14.538 4.34315 15.6569C5.46197 16.7757 6.88743 17.5376 8.43928 17.8463C9.99113 18.155 11.5997 17.9965 13.0615 17.391C14.5233 16.7855 15.7727 15.7601 16.6518 14.4446C17.5308 13.129 18 11.5822 18 10H20Z" fill="white"/>
<path d="M17 10C17 11.3845 16.5895 12.7378 15.8203 13.889C15.0511 15.0401 13.9579 15.9373 12.6788 16.4672C11.3997 16.997 9.99224 17.1356 8.63437 16.8655C7.2765 16.5954 6.02922 15.9287 5.05026 14.9497C4.07129 13.9708 3.4046 12.7235 3.13451 11.3656C2.86441 10.0078 3.00303 8.6003 3.53285 7.32122C4.06266 6.04213 4.95987 4.94888 6.11101 4.17971C7.26215 3.41054 8.61553 3 10 3V4.75C8.96165 4.75 7.94661 5.05791 7.08326 5.63478C6.2199 6.21166 5.54699 7.0316 5.14963 7.99091C4.75228 8.95022 4.64831 10.0058 4.85088 11.0242C5.05345 12.0426 5.55347 12.9781 6.28769 13.7123C7.02192 14.4465 7.95738 14.9465 8.97578 15.1491C9.99418 15.3517 11.0498 15.2477 12.0091 14.8504C12.9684 14.453 13.7883 13.7801 14.3652 12.9167C14.9421 12.0534 15.25 11.0383 15.25 10H17Z" fill="white"/>
<path d="M14 10C14 10.7911 13.7654 11.5645 13.3259 12.2223C12.8864 12.8801 12.2616 13.3928 11.5307 13.6955C10.7998 13.9983 9.99557 14.0775 9.21964 13.9231C8.44372 13.7688 7.73099 13.3878 7.17158 12.8284C6.61217 12.269 6.2312 11.5563 6.07686 10.7804C5.92252 10.0044 6.00173 9.20017 6.30448 8.46927C6.60723 7.73836 7.11992 7.11365 7.77772 6.67412C8.43552 6.2346 9.20887 6 10 6L10 7.2C9.44621 7.2 8.90486 7.36422 8.44441 7.67188C7.98395 7.97955 7.62506 8.41685 7.41314 8.92848C7.20121 9.44012 7.14577 10.0031 7.2538 10.5463C7.36184 11.0894 7.62852 11.5883 8.0201 11.9799C8.41169 12.3715 8.9106 12.6382 9.45375 12.7462C9.9969 12.8542 10.5599 12.7988 11.0715 12.5869C11.5831 12.3749 12.0204 12.0161 12.3281 11.5556C12.6358 11.0951 12.8 10.5538 12.8 10H14Z" fill="white"/>
<path d="M18 8L20 0L12 2L15.3333 2.66667L10 10L17.3333 4.66667L18 8Z" fill="white"/>
</svg>
