<svg width="24" height="24" viewBox="0 0 24 24" fill="none" xmlns="http://www.w3.org/2000/svg">
<path fill-rule="evenodd" clip-rule="evenodd" d="M15.8614 17.2352C14.1869 18.6055 12.0464 19.4276 9.7138 19.4276C4.34902 19.4276 0 15.0786 0 9.7138C0 4.34902 4.34902 0 9.7138 0C15.0786 0 19.4276 4.34902 19.4276 9.7138C19.4276 12.0464 18.6055 14.1869 17.2352 15.8614L24 22.6263L22.6263 24L15.8614 17.2352ZM17.4848 9.7138C17.4848 14.0056 14.0056 17.4848 9.7138 17.4848C5.42198 17.4848 1.94276 14.0056 1.94276 9.7138C1.94276 5.42198 5.42198 1.94276 9.7138 1.94276C14.0056 1.94276 17.4848 5.42198 17.4848 9.7138Z" fill="#B67F15"/>
</svg>
