<svg width="30" height="30" viewBox="0 0 30 30" fill="none" xmlns="http://www.w3.org/2000/svg">
<rect x="0.5" y="0.5" width="29" height="29" fill="#041722" stroke="#5B5B5B"/>
<path d="M13.4082 17.6348C13.4082 16.7233 13.5189 15.9974 13.7402 15.457C13.9616 14.9167 14.3652 14.3861 14.9512 13.8652C15.5436 13.3379 15.9375 12.9115 16.1328 12.5859C16.3281 12.2539 16.4258 11.9056 16.4258 11.541C16.4258 10.4408 15.918 9.89062 14.9023 9.89062C14.4206 9.89062 14.0332 10.0404 13.7402 10.3398C13.4538 10.6328 13.304 11.0397 13.291 11.5605H10.459C10.472 10.3171 10.8724 9.34375 11.6602 8.64062C12.4544 7.9375 13.5352 7.58594 14.9023 7.58594C16.2826 7.58594 17.3535 7.92122 18.1152 8.5918C18.877 9.25586 19.2578 10.1966 19.2578 11.4141C19.2578 11.9674 19.1341 12.4915 18.8867 12.9863C18.6393 13.4746 18.2064 14.0182 17.5879 14.6172L16.7969 15.3691C16.3021 15.8444 16.0189 16.401 15.9473 17.0391L15.9082 17.6348H13.4082ZM13.125 20.6328C13.125 20.1966 13.2715 19.8385 13.5645 19.5586C13.8639 19.2721 14.2448 19.1289 14.707 19.1289C15.1693 19.1289 15.5469 19.2721 15.8398 19.5586C16.1393 19.8385 16.2891 20.1966 16.2891 20.6328C16.2891 21.0625 16.1426 21.4173 15.8496 21.6973C15.5632 21.9772 15.1823 22.1172 14.707 22.1172C14.2318 22.1172 13.8477 21.9772 13.5547 21.6973C13.2682 21.4173 13.125 21.0625 13.125 20.6328Z" fill="#5B5B5B"/>
</svg>
