<svg width="30" height="30" viewBox="0 0 30 30" fill="none" xmlns="http://www.w3.org/2000/svg">
<path fill-rule="evenodd" clip-rule="evenodd" d="M18.1111 0C20.7037 0.35697 24.5556 4.49783 29 10.4949C28.9353 10.7443 28.8633 11.0335 28.7821 11.3593C27.934 14.7637 26.0898 22.1665 21.2222 29.9855C21.2222 29.9953 21.2222 30 21.2221 30C21.2176 30.0001 21.0523 23.9884 15 23.9884C8.94772 23.9884 8.78242 30.0001 8.7779 30C8.77778 30 8.77778 29.9953 8.77778 29.9855C3.91025 22.1665 2.06602 14.7637 1.2179 11.3593C1.13673 11.0335 1.06469 10.7443 1 10.4949C5.44444 4.49783 9.2963 0.35697 11.8889 0C11.8889 0.200154 11.8928 0.4134 11.8969 0.640614C11.937 2.84479 12.0011 6.36336 8.77778 11.9942C10.2593 11.2803 13.2222 11.2446 15 11.2446C16.7778 11.2446 19.7407 11.2803 21.2222 11.9942C17.9989 6.36336 18.063 2.84479 18.1031 0.640615C18.1072 0.413401 18.1111 0.200154 18.1111 0ZM15 21C16.7182 21 18.1111 19.6569 18.1111 18C18.1111 16.3431 16.7182 15 15 15C13.2818 15 11.8889 16.3431 11.8889 18C11.8889 19.6569 13.2818 21 15 21Z" fill="#8717DE"/>
</svg>
