<svg width="30" height="30" viewBox="0 0 30 30" fill="none" xmlns="http://www.w3.org/2000/svg">
<path fill-rule="evenodd" clip-rule="evenodd" d="M25 13.8462C23 23.0769 17.5 28.4615 15 30C12.5 28.4615 7 23.0769 5 13.8462C3.33333 12.6923 0 9.92308 0 8.07692L5 6.92308C5.41667 5 6.5 0.923077 7.5 0L12.5 6.92308C12.9167 5 14 0.923077 15 0C16 0.923077 17.0833 5 17.5 6.92308L22.5 0C23.5 0.923077 24.5833 5 25 6.92308L30 8.07692C30 9.92308 26.6667 12.6923 25 13.8462ZM17.5 16.1466C17.5 13.6958 20.6503 11.0407 22.2254 10.0195C22.7227 9.67457 22.4326 13.9605 22.2254 16.1466C20.6503 17.1678 17.5 18.5975 17.5 16.1466ZM7.77459 10.0195C9.34972 11.0407 12.5 13.6958 12.5 16.1466C12.5 18.5975 9.34972 17.1678 7.77459 16.1466C7.56738 13.9605 7.27728 9.67457 7.77459 10.0195Z" fill="#AA0013"/>
</svg>
