<svg width="20" height="20" viewBox="0 0 20 20" fill="none" xmlns="http://www.w3.org/2000/svg">
<path fill-rule="evenodd" clip-rule="evenodd" d="M13 1.48512C12.5878 1.4851 12.3455 1.39819 12.0628 1.29681C11.6599 1.15233 11.1751 0.978456 10 0.984739C8.8325 0.990982 8.34669 1.16049 7.94543 1.3005C7.65941 1.4003 7.41635 1.48511 7 1.48512C6.00046 0.918641 3 -0.696247 1 0.338563C0.380738 0.658972 1.05981 2.07084 1.69291 3.38711C2.10626 4.24649 2.5 5.06513 2.5 5.51263C1.50028 5.51262 0 7.53787 0 10.9366C0 14.3364 2 20 10 20C18 20 20 14.3354 20 10.9366C20 7.53787 18.5 5.51263 17.5 5.51263C17.5 5.06513 17.8937 4.24649 18.3071 3.3871C18.9402 2.07083 19.6193 0.65896 19 0.338562C17 -0.696196 14.0005 0.918627 13 1.48512ZM4 4C8.49977 4 8.50022 9 7.37484 9C6.24946 9 4.00002 9 4 4ZM16 4C11.5002 4 11.4998 9 12.6251 9C13.7505 9 16 9 16 4Z" fill="#5B5B5B"/>
</svg>
