<svg width="20" height="20" viewBox="0 0 20 20" fill="none" xmlns="http://www.w3.org/2000/svg">
<path d="M4 9C3.2799 7.19975 1 7.05882 1 7.05882L0 4L4 0H7C7 0 9 0 9 1V17C9 17 6 16 6 15C6 14 6 14 4 9Z" fill="#5B5B5B"/>
<path d="M8 18L4.5 17L3.5 15L2 13H1L2 18L5 20H6L8 19V18Z" fill="#5B5B5B"/>
<path d="M16 9C16.7201 7.19975 19 7.05882 19 7.05882L20 4L16 0H13C13 0 11 0 11 1V17C11 17 14 16 14 15C14 14 14 14 16 9Z" fill="#5B5B5B"/>
<path d="M12 19L14 20H15L18 18L19 13H18L16.5 15L15.5 17L12 18V19Z" fill="#5B5B5B"/>
</svg>
