<svg width="16" height="20" viewBox="0 0 16 20" fill="none" xmlns="http://www.w3.org/2000/svg">
<path d="M7 5L12 0V5L14.9773 2.91619L14 9L16.0001 10.6927L13 12C13 12 13.023 10.9577 12 10C11.494 9.52634 10.7714 9.2766 10.0409 9.02416C9.2944 8.76619 8.53978 8.50542 8 8C7 7.06366 7 5 7 5Z" fill="#5B5B5B"/>
<path fill-rule="evenodd" clip-rule="evenodd" d="M3.72642 19.7735C3.21501 20.8142 1.16954 17.9882 0.657751 16.9881C-0.365039 14.9895 -0.125511 12.9986 0.897292 11C2.00888 8.82792 6 6 6 6C6 6 6 8 7 9C7.51993 9.51993 8.27765 9.76979 9.02944 10.0177C9.76955 10.2618 10.5039 10.5039 11 11C11.9343 11.9343 11.9161 11.9884 11.4926 13.2456C11.4628 13.3339 11.431 13.4282 11.3975 13.5292C11.2637 13.9313 9.91626 14.8636 8.38072 15.926C6.43763 17.2704 4.19338 18.8232 3.72642 19.7735ZM3.26387 11.4965C2.12278 9.86384 4.99049 8.29137 5.99997 8C5.72914 8.54721 5.49463 9.17832 5.27286 9.77515C4.66803 11.4029 4.15793 12.7757 3.26387 11.4965Z" fill="#5B5B5B"/>
</svg>
