<svg width="20" height="20" viewBox="0 0 20 20" fill="none" xmlns="http://www.w3.org/2000/svg">
<path d="M17.5175 7.26384C17.9493 8.45019 18.0942 9.72188 17.9404 10.975C17.7865 12.228 17.3383 13.4269 16.6323 14.4735C15.9263 15.5202 14.9827 16.3849 13.8785 16.997C12.7743 17.609 11.5409 17.9511 10.2792 17.9951C9.01748 18.0392 7.76325 17.784 6.61905 17.2505C5.47485 16.7169 4.47317 15.9201 3.69591 14.9253C2.91865 13.9304 2.38787 12.7658 2.14698 11.5265C1.90609 10.2872 1.96192 9.00848 2.30991 7.7949L10 10L17.5175 7.26384Z" fill="#AA0013"/>
<path fill-rule="evenodd" clip-rule="evenodd" d="M20 4L13 0H7L0 4L1 8L5 11L7 20L9 16H11L13 20L15 11L19 8L20 4ZM16 5.5C16 6.32843 15.3284 7 14.5 7C13.6716 7 13 6.32843 13 5.5C13 4.67157 13.6716 4 14.5 4C15.3284 4 16 4.67157 16 5.5ZM5.5 7C6.32843 7 7 6.32843 7 5.5C7 4.67157 6.32843 4 5.5 4C4.67157 4 4 4.67157 4 5.5C4 6.32843 4.67157 7 5.5 7Z" fill="#5B5B5B"/>
</svg>
