<svg width="28" height="24" viewBox="0 0 28 24" fill="none" xmlns="http://www.w3.org/2000/svg">
<path d="M14 15C15.1046 15 16 14.1046 16 13C16 11.8954 15.1046 11 14 11C12.8954 11 12 11.8954 12 13C12 14.1046 12.8954 15 14 15Z" fill="#8717DE"/>
<path fill-rule="evenodd" clip-rule="evenodd" d="M18 6V0C20.6667 1 26 4 26 8C25.6719 9.53103 25.0425 11.5644 24.0904 13.6056C25.8807 15.2632 28 17.8435 28 20C28 23.2 24 24 22 24C20 22 22 17.2147 22 17.2147C20.0521 19.9106 17.4066 22 14 22C10.5934 22 7.9479 19.9106 6 17.2147C6 17.2147 8 22 6 24C4 24 0 23.2 0 20C0 17.8435 2.11929 15.2632 3.90956 13.6056C2.95754 11.5644 2.32808 9.53103 2 8C2 4 7.33333 1 10 0V6H18ZM18 13C18 15.2091 16.2091 17 14 17C11.7909 17 10 15.2091 10 13C10 10.7909 11.7909 9 14 9C16.2091 9 18 10.7909 18 13Z" fill="#8717DE"/>
</svg>
