<svg width="20" height="20" viewBox="0 0 20 20" fill="none" xmlns="http://www.w3.org/2000/svg">
<path d="M10 3.99994C12 3.99994 13 4.99997 13 4.99997C13 4.99997 15 -7.14735e-05 17 -6.10352e-05C19 -5.05968e-05 15 3.99994 16 5.99994C17 7.99994 20 9.99999 20 9.99999L18.3333 12.5C18.3333 12.5 20 15 20 16.9999C20 19.9999 18 19.9999 16 19.9999C15 17.9999 16.6667 15 16.6667 15C15.5 16.9999 12 17.9999 10 17.9999C8 17.9999 4.77838 16.9999 3.33333 15C3.33333 15 5 17.9999 4 19.9999C2 19.9999 0 19.9999 0 16.9999C0 15 1.66667 12.5 1.66667 12.5L0 9.99999C0 9.99999 3 7.99994 4 5.99994C5 3.99994 1 -0.00012207 3 -6.10352e-05C5 0 7 4.99994 7 4.99994C7 4.99994 8 3.99994 10 3.99994Z" fill="#5B5B5B"/>
</svg>
